<?xml version="1.0" standalone="no"?>
<!DOCTYPE svg PUBLIC "-//W3C//DTD SVG 20010904//EN"
 "http://www.w3.org/TR/2001/REC-SVG-20010904/DTD/svg10.dtd">
<svg version="1.0" xmlns="http://www.w3.org/2000/svg"
 width="700.000000pt" height="700.000000pt" viewBox="0 0 700.000000 700.000000"
 preserveAspectRatio="xMidYMid meet">
<metadata>
Created by potrace 1.14, written by Peter Selinger 2001-2017
</metadata>
<g transform="translate(0.000000,700.000000) scale(0.100000,-0.100000)"
fill="#000000" stroke="none">
<path d="M3437 6883 c-1 -1 -27 -4 -57 -7 -81 -7 -127 -15 -205 -36 -144 -38
-216 -71 -475 -218 -239 -135 -453 -257 -940 -532 -907 -513 -878 -496 -1004
-611 -200 -184 -333 -430 -385 -714 -19 -106 -20 -151 -20 -1275 0 -749 4
-1185 11 -1220 41 -222 121 -414 241 -580 62 -86 213 -229 307 -291 69 -46
344 -204 1045 -599 127 -72 441 -250 750 -425 105 -60 222 -123 261 -141 80
-36 218 -82 273 -90 20 -3 43 -7 51 -9 27 -8 134 -16 210 -17 239 -1 433 54
687 196 81 46 171 95 198 111 28 15 93 52 145 82 52 30 104 59 115 65 11 6 65
37 120 69 55 31 361 204 680 384 319 180 614 351 655 379 250 170 460 485 519
776 6 30 14 69 18 85 4 17 9 561 10 1210 2 1142 1 1184 -18 1290 -30 163 -94
333 -175 461 -81 129 -233 288 -354 370 -58 39 -648 378 -965 554 -22 12 -107
61 -190 108 -82 47 -172 97 -200 112 -27 16 -147 83 -265 151 -329 187 -329
187 -425 234 -182 87 -335 122 -558 128 -32 1 -59 1 -60 0z m247 -607 c72 -20
144 -56 383 -192 103 -58 229 -129 278 -157 50 -28 139 -79 198 -114 60 -35
111 -63 113 -63 3 0 80 -43 172 -96 92 -53 196 -112 232 -131 36 -20 70 -39
75 -43 6 -4 35 -21 65 -37 30 -17 98 -55 150 -85 52 -30 158 -90 235 -133 77
-43 163 -94 190 -114 143 -102 246 -263 279 -439 18 -94 15 -2292 -3 -2368
-30 -125 -97 -248 -182 -333 -73 -74 -102 -94 -304 -208 -88 -50 -279 -158
-425 -240 -146 -83 -454 -257 -685 -388 -231 -130 -440 -249 -465 -263 -246
-144 -336 -173 -515 -167 -130 4 -222 30 -343 99 -42 24 -93 52 -112 63 -204
115 -407 230 -615 348 -137 78 -275 156 -305 172 -30 17 -84 48 -120 68 -36
21 -85 49 -110 63 -25 14 -94 53 -155 87 -60 35 -127 72 -148 84 -21 12 -71
40 -110 62 -40 23 -97 55 -127 72 -219 120 -348 295 -388 522 -14 80 -8 2290
6 2347 51 206 169 361 356 468 99 58 1032 586 1108 629 41 23 191 107 298 168
231 131 413 234 450 254 59 33 132 60 200 75 73 16 250 10 324 -10z"/>
<path d="M4855 4268 c-269 -36 -479 -228 -556 -508 -34 -127 -33 -388 2 -510
57 -193 171 -341 325 -422 119 -62 205 -82 354 -81 252 1 466 127 572 335 31
60 62 163 55 181 -3 9 -47 12 -156 12 l-152 -1 -24 -58 c-26 -64 -60 -106
-115 -141 -99 -62 -245 -68 -358 -13 -94 45 -165 146 -196 280 -15 62 -16 272
-3 327 45 178 133 279 273 316 60 15 155 13 214 -7 97 -31 178 -119 196 -211
2 -11 6 -22 10 -26 3 -3 75 -6 160 -7 l155 0 -5 40 c-30 211 -195 401 -404
466 -103 32 -237 43 -347 28z"/>
<path d="M1851 4245 c-4 -5 -27 -66 -50 -135 -24 -69 -47 -134 -51 -145 -5
-11 -39 -108 -75 -215 -37 -107 -107 -312 -156 -455 -50 -143 -110 -318 -135
-389 -24 -71 -41 -132 -38 -135 7 -7 312 -9 323 -1 5 3 33 79 62 170 l54 165
263 0 c145 0 267 -2 271 -5 4 -3 31 -78 60 -167 28 -90 55 -164 59 -164 10 -2
332 -5 332 -3 0 1 -39 113 -86 250 -47 137 -110 319 -139 404 -29 85 -95 274
-145 420 -51 146 -100 292 -111 325 -32 98 -11 90 -233 90 -126 1 -200 -3
-205 -10z m299 -609 c50 -153 90 -280 90 -282 0 -2 -83 -4 -185 -4 -102 0
-185 4 -185 8 0 9 128 407 160 501 11 30 20 57 20 60 0 20 22 -43 100 -283z"/>
<path d="M2950 3511 l0 -746 153 -1 c83 0 154 3 157 8 3 4 5 122 5 262 0 249
1 256 20 257 11 0 62 1 114 1 81 1 95 -2 105 -18 6 -10 33 -59 59 -109 27 -49
85 -157 129 -240 45 -82 83 -152 85 -155 7 -8 334 -6 340 3 2 4 0 13 -5 20 -5
7 -29 48 -52 92 -24 44 -59 109 -78 145 -19 36 -38 70 -42 75 -4 6 -26 46 -50
90 -23 44 -51 94 -61 111 -21 35 -19 39 39 68 50 26 126 108 154 168 23 48 31
70 44 133 9 40 5 174 -7 221 -45 186 -184 312 -384 350 -22 4 -194 8 -382 9
l-343 1 0 -745z m670 462 c63 -28 98 -67 116 -130 40 -137 -18 -249 -147 -283
-45 -12 -297 -18 -315 -8 -7 5 -12 429 -5 446 1 1 70 1 154 -1 126 -3 160 -7
197 -24z"/>
</g>
</svg>
