<?xml version="1.0" standalone="no"?>
<!DOCTYPE svg PUBLIC "-//W3C//DTD SVG 20010904//EN"
 "http://www.w3.org/TR/2001/REC-SVG-20010904/DTD/svg10.dtd">
<svg version="1.0" xmlns="http://www.w3.org/2000/svg"
 width="180.000000pt" height="180.000000pt" viewBox="0 0 180.000000 180.000000"
 preserveAspectRatio="xMidYMid meet">
<metadata>
Created by potrace 1.14, written by Peter Selinger 2001-2017
</metadata>
<g transform="translate(0.000000,180.000000) scale(0.100000,-0.100000)"
fill="#000000" stroke="none">
<path d="M805 1627 c-16 -8 -131 -71 -255 -141 -245 -138 -295 -179 -324 -263
-24 -70 -23 -587 0 -658 29 -83 84 -127 349 -276 l240 -134 90 0 90 0 240 134
c265 148 320 192 349 276 24 72 24 588 0 660 -29 84 -84 128 -349 276 l-240
134 -80 3 c-51 1 -91 -3 -110 -11z m321 -213 c279 -158 304 -174 325 -207 17
-30 19 -53 19 -310 0 -303 -2 -316 -57 -355 -16 -11 -125 -74 -243 -141 -285
-161 -243 -162 -550 12 -175 100 -241 142 -257 167 -23 32 -23 39 -23 315 0
276 0 283 23 315 16 25 82 67 257 167 302 171 273 169 506 37z"/>
<path d="M1161 1048 c-58 -30 -81 -74 -81 -153 0 -70 22 -114 72 -145 76 -46
189 -10 212 68 7 19 4 22 -23 22 -19 0 -39 -9 -55 -25 -33 -33 -79 -33 -111 0
-33 33 -36 119 -4 159 28 36 89 37 117 1 20 -26 82 -36 82 -15 0 25 -32 71
-59 85 -54 27 -102 28 -150 3z"/>
<path d="M535 1048 c-58 -166 -105 -303 -105 -310 0 -4 15 -8 33 -8 30 0 36 4
50 41 l16 40 57 -3 c56 -3 58 -4 69 -38 10 -30 16 -35 48 -38 20 -2 37 0 37 5
0 4 -25 78 -54 163 l-53 155 -47 3 c-31 2 -48 -1 -51 -10z m82 -159 c5 -28 4
-29 -31 -29 -42 0 -43 6 -19 76 l17 49 13 -34 c8 -18 17 -46 20 -62z"/>
<path d="M780 895 l0 -165 35 0 35 0 0 60 c0 59 1 60 28 60 23 0 32 -9 57 -58
28 -53 33 -57 69 -60 21 -2 37 1 35 6 -2 5 -17 33 -33 63 l-29 55 26 27 c21
20 27 36 27 67 0 85 -38 110 -165 110 l-85 0 0 -165z m166 94 c17 -14 18 -51
2 -67 -7 -7 -31 -12 -55 -12 l-43 0 0 43 c0 24 3 47 8 51 9 10 70 0 88 -15z"/>
</g>
</svg>
