<svg xmlns="http://www.w3.org/2000/svg" xmlns:xlink="http://www.w3.org/1999/xlink" xmlns:svgjs="http://svgjs.com/svgjs" version="1.1" width="512" height="512" x="0" y="0" viewBox="0 0 512 512" style="enable-background:new 0 0 512 512" xml:space="preserve"><g><g xmlns="http://www.w3.org/2000/svg" id="_x31_3_Support_Ticket"><g><path d="m494.133 215.849c10.595-7.661 17.223-19.613 17.223-32.707v-42.378c0-12.008-9.725-21.732-21.732-21.732h-360.433v273.937h360.433c12.007 0 21.732-9.725 21.732-21.732v-42.379c0-13.093-6.628-25.046-17.223-32.707-10.866-7.824-18.255-22.928-18.255-40.151s7.389-32.327 18.255-40.151zm-79.687 47.653c0 9.619-7.205 17.687-16.766 18.764l-8.192.944c-1.332 4.054-2.955 7.975-4.86 11.742l5.168 6.484c5.964 7.595 5.332 18.371-1.422 25.131l-10.681 10.678c-3.576 3.573-8.319 5.537-13.365 5.537-4.218 0-8.378-1.44-11.71-4.059l-6.542-5.218c-3.767 1.907-7.688 3.531-11.742 4.86l-.944 8.216c-1.077 9.534-9.142 16.742-18.767 16.742h-15.005c-9.619 0-17.684-7.208-18.761-16.766l-.944-8.192c-4.054-1.329-7.98-2.953-11.747-4.86l-6.484 5.17c-3.388 2.666-7.547 4.107-11.766 4.107-5.051 0-9.797-1.966-13.368-5.539l-10.67-10.673c-6.762-6.76-7.399-17.538-1.483-25.07l5.221-6.545c-1.907-3.767-3.528-7.688-4.86-11.744l-8.216-.944c-9.537-1.08-16.742-9.147-16.742-18.764v-15.005c0-9.617 7.205-17.681 16.761-18.764l8.197-.944c1.332-4.054 2.953-7.977 4.86-11.742l-5.17-6.484c-5.966-7.595-5.33-18.374 1.433-25.133l10.675-10.675c3.568-3.571 8.314-5.537 13.363-5.537 4.221 0 8.378 1.441 11.707 4.059l6.542 5.218c3.767-1.907 7.688-3.531 11.747-4.86l.944-8.221c1.077-9.529 9.142-16.737 18.761-16.737h15.005c9.625 0 17.689 7.208 18.767 16.766l.944 8.192c4.054 1.329 7.975 2.953 11.742 4.86l6.484-5.173c3.39-2.663 7.55-4.104 11.768-4.104 5.046 0 9.789 1.963 13.36 5.531l10.681 10.681c6.76 6.762 7.391 17.538 1.48 25.07l-5.221 6.545c1.905 3.767 3.528 7.691 4.86 11.744l8.219.944c9.534 1.08 16.74 9.147 16.74 18.764v15.004z" fill="currentColor" data-original="#000000"/><path d="m396.463 240.53-15.47-1.779c-1.856-8.044-5.028-15.78-9.437-22.741l9.746-12.222c2.552-3.248 2.243-7.812-.619-10.674l-10.675-10.675c-2.862-2.862-7.426-3.172-10.675-.619l-12.222 9.746c-6.961-4.409-14.696-7.58-22.741-9.436l-1.779-15.47c-.464-4.1-3.868-7.117-7.967-7.117h-15.004c-4.1 0-7.503 3.017-7.968 7.117l-1.779 15.47c-8.045 1.856-15.78 5.028-22.742 9.437l-12.222-9.747c-3.249-2.553-7.812-2.243-10.675.619l-10.675 10.674c-2.862 2.862-3.171 7.425-.619 10.675l9.746 12.221c-4.409 6.962-7.58 14.697-9.437 22.742l-15.47 1.779c-4.1.464-7.116 3.868-7.116 7.968v15.006c0 4.099 3.016 7.503 7.116 7.967l15.47 1.779c1.856 8.044 5.028 15.779 9.437 22.741l-9.746 12.222c-2.552 3.248-2.243 7.813.619 10.675l10.675 10.675c2.862 2.862 7.426 3.171 10.675.618l12.222-9.747c6.962 4.409 14.697 7.581 22.742 9.438l1.779 15.47c.464 4.099 3.868 7.116 7.968 7.116h15.006c4.1 0 7.503-3.018 7.967-7.116l1.779-15.47c8.045-1.857 15.78-5.029 22.741-9.438l12.222 9.747c3.248 2.552 7.812 2.243 10.675-.619l10.675-10.675c2.862-2.862 3.171-7.425.619-10.675l-9.746-12.221c4.409-6.962 7.58-14.697 9.437-22.742l15.47-1.779c4.1-.464 7.116-3.868 7.116-7.968v-15.006c-.001-4.098-3.018-7.502-7.118-7.966zm-60.721 44.064c-15.838 15.838-41.456 15.838-57.294 0-15.838-15.732-15.838-41.456 0-57.188 15.838-15.838 41.456-15.838 57.294 0 15.732 15.731 15.732 41.455 0 57.188z" fill="currentColor" data-original="#000000"/><path d="m.644 140.764v42.389c0 13.07 6.629 25.019 17.221 32.676 10.88 7.866 18.257 22.936 18.257 40.171 0 17.234-7.377 32.305-18.257 40.171-10.592 7.657-17.221 19.605-17.221 32.676v42.39c0 12.003 9.73 21.732 21.732 21.732h95.948v-273.937h-95.948c-12.002 0-21.732 9.729-21.732 21.732zm53.965 7.74h40.347c3.845 0 6.962 3.116 6.962 6.962 0 3.844-3.117 6.961-6.962 6.961h-40.347c-3.845 0-6.961-3.117-6.961-6.961 0-3.845 3.116-6.962 6.961-6.962zm0 33.512h40.347c3.845 0 6.962 3.116 6.962 6.962 0 3.844-3.117 6.961-6.962 6.961h-40.347c-3.845 0-6.961-3.117-6.961-6.961 0-3.846 3.116-6.962 6.961-6.962zm0 33.512h40.347c3.845 0 6.962 3.116 6.962 6.961s-3.117 6.961-6.962 6.961h-40.347c-3.845 0-6.961-3.116-6.961-6.961 0-3.846 3.116-6.961 6.961-6.961zm0 33.511h40.347c3.845 0 6.962 3.116 6.962 6.961s-3.117 6.961-6.962 6.961h-40.347c-3.845 0-6.961-3.116-6.961-6.961s3.116-6.961 6.961-6.961zm0 33.511h40.347c3.845 0 6.962 3.116 6.962 6.961s-3.117 6.961-6.962 6.961h-40.347c-3.845 0-6.961-3.116-6.961-6.961s3.116-6.961 6.961-6.961zm0 33.511h40.347c3.845 0 6.962 3.116 6.962 6.961s-3.117 6.961-6.962 6.961h-40.347c-3.845 0-6.961-3.116-6.961-6.961 0-3.844 3.116-6.961 6.961-6.961zm0 33.512h40.347c3.845 0 6.962 3.116 6.962 6.961s-3.117 6.961-6.962 6.961h-40.347c-3.845 0-6.961-3.116-6.961-6.961s3.116-6.961 6.961-6.961z" fill="currentColor" data-original="#000000"/></g></g></g></svg>